<svg width="57" height="57" viewBox="0 0 57 57" fill="none" xmlns="http://www.w3.org/2000/svg">
<path d="M47.1492 34.6335L46.7466 35.7013C45.7805 38.2635 44.2792 40.5904 42.3429 42.5268L40.6503 44.2193C34.0618 50.8079 23.3796 50.8079 16.7911 44.2193C12.6299 40.0581 10.9377 34.0292 12.3257 28.3104L13.4209 23.7982C15.2774 16.1495 21.991 10.6664 29.8564 10.3751C34.7421 10.1941 39.5261 12.0992 42.9832 15.5563C47.9651 20.5382 49.6348 28.0411 47.1492 34.6335Z" fill="#222222" stroke="#0C3C87"/>
<path d="M28.833 38.8946C29.1258 39.1875 29.6007 39.1875 29.8936 38.8946L34.6666 34.1216C34.9595 33.8287 34.9595 33.3539 34.6666 33.061C34.3737 32.7681 33.8988 32.7681 33.6059 33.061L29.3633 37.3036L25.1206 33.061C24.8277 32.7681 24.3529 32.7681 24.06 33.061C23.7671 33.3538 23.7671 33.8287 24.06 34.1216L28.833 38.8946ZM28.6133 20.3643L28.6133 38.3643L30.1133 38.3643L30.1133 20.3643L28.6133 20.3643Z" fill="#FCF8ED"/>
</svg>
