<svg width="37" height="37" viewBox="0 0 37 37" fill="none" xmlns="http://www.w3.org/2000/svg">
  <circle cx="18.5" cy="18.5" r="18.5" fill="#FCF8ED"/>
  <path d="M17.96 11.42L15.46 12.24C16.06 13.48 17.16 16.38 17.54 17.66L20.06 16.78C19.68 15.48 18.46 12.4 17.96 11.42ZM27.1 13.02L24.1 12.16C23.76 15.22 22.52 18.66 21.02 20.56C18.98 23.14 15.86 24.94 13.12 25.72L15.36 27.96C18.22 26.88 21.12 24.86 23.22 22.1C24.88 19.92 26.02 16.74 26.58 14.56C26.7 14.12 26.88 13.52 27.1 13.02ZM12.4 12.66L9.84 13.54C10.42 14.62 11.74 17.9 12.14 19.2L14.72 18.26C14.26 16.9 13 13.92 12.4 12.66Z" fill="#0C3C87"/>
</svg>